<?xml version="1.0" encoding="UTF-8"?>
<svg id="Layer_2" data-name="Layer 2" xmlns="http://www.w3.org/2000/svg" viewBox="0 0 143.22 105.56">
  <defs>
    <style>
      .cls-1 {
        fill: #000;
        stroke-width: 0px;
      }
    </style>
  </defs>
  <g id="Layer_1-2" data-name="Layer 1-2">
    <g>
      <path class="cls-1" d="M76.36,21.99c-1.78-3.4-3.42-6.54-5.25-10.04-4.21,6.55-6.81,14.15-15.83,16.48,3.3-6.79,6.36-13.09,9.55-19.64-4.49-1.94-8.93-2.16-12.67.87-3.11,2.52-5.92,5.62-8.11,8.96-1.07,1.63-.86,4.47-.44,6.61.45,2.27,1.78,4.39,2.85,6.51.92,1.83.57,2.92-1.66,4.18-1.56.89-2.95,1.04-4.1-.76-6.09-9.6-4.85-20.25,3.55-27.93C50.46,1.54,57.76-1.13,66.29.44c3.12.57,5.87,2,7.5,4.71,5.05,8.38,9.92,16.88,14.94,25.48-1.74,1.28-3.2,2.34-4.87,3.57-1.66-2.05-3.24-4.01-4.85-6.01-6.09,3.77-12.06,7.47-18.3,11.33,1.59,1.44,3.05,2.76,4.48,4.06-1.56,3.69-3.94,4.76-7.42,3.04-3.47-1.72-6.57-1.44-9.68.73-1.57,1.1-3.24,2.05-4.87,3.05-1.25.77-1.69,1.66-.56,2.88,5.76,6.2,11.3,12.61,17.33,18.53,4.57,4.48,10.4,4.53,16.16,2.48,2.68-.96,5.15-2.52,7.7-3.82,3.19-1.62,4.41-1.39,7,1.48-1.67,2.85-4.11,4.92-7.01,6.5-9.71,5.29-22.82,3.64-31.18-4.27-3.52-3.33-6.37-7.37-9.83-10.78-2.11-2.08-4.73-3.67-7.25-5.28-1.16-.74-2.53-.54-3.27.9-.75,1.46-.26,2.61,1.08,3.46,2.97,1.87,5.94,3.74,8.9,5.61-1.84,2.87-6.13,4.05-10.33,2.92-7.42-2-9.99-11.37-4.51-16.72,1.59-1.55,3.43-2.87,5.3-4.08,13.39-8.7,26.82-17.34,40.23-26,1.07-.69,2.11-1.41,3.35-2.23h.03Z"/>
      <path class="cls-1" d="M76.26.81c2.41-.11,4.56-.56,6.59-.25,9,1.34,15.96,5.79,20.31,13.92,2.97,5.57,2.92,11.16-.28,16.62-1.77,3.01-3.74,5.9-5.75,9.04,1.14.83,2.29,1.53,3.27,2.42,4.68,4.2,9.55,8.22,13.9,12.74,3.8,3.94,3.91,7.77,1.28,11.43-3.16,4.4-8.59,6.49-13.03,4.4-8.36-3.94-16.55-8.24-24.8-12.39,1.77-3.98,4.56-5.08,8.36-3.19,4.93,2.45,9.72,5.18,14.67,7.57,1.74.84,3.77,1.2,5.72,1.45,2.31.29,3.03-1.23,3.05-3.28.03-2.59-.71-3.69-2.86-3.83-1.11-.07-2.23.11-3.35.19-2.62.18-3.89-.36-5.67-2.45.11-.26.19-.57.35-.83,2-3.4,1.96-3.85-1.09-6.39-3.66-3.05-7.72-3.35-11.84-1.16-4.36,2.32-8.6,4.89-12.87,7.38-5.16,3.01-10.3,6.06-15.68,9.23-1.34-1.67-2.6-3.25-4.02-5.03.89-.57,1.6-1.04,2.34-1.48,11.42-6.87,22.85-13.73,34.26-20.62,1.43-.86,2.86-1.78,4.13-2.85,8.27-6.94,6.52-19.24-3.41-23.78-2.53-1.16-5.24-1.95-7.78-3.08-2.42-1.08-4.55-2.58-5.78-5.77h-.02Z"/>
      <path class="cls-1" d="M65.85,92.39c5.42-1.14,3.87,4.55,6.6,6.19.64-1.3,1.49-2.58,1.92-3.99.69-2.26,2.1-2.73,4.33-2.14v12.1h-3.4v-4.93l-.31-.07c-.83,1.8-1.66,3.59-2.78,6.01-1.11-2.28-1.92-3.93-3.03-6.19v5.16h-3.33v-12.13h0Z"/>
      <path class="cls-1" d="M55.32,92.26c3.67.02,6.36,2.73,6.31,6.36-.05,3.51-2.74,6.08-6.34,6.07-3.67-.02-6.4-2.75-6.33-6.35.07-3.47,2.81-6.1,6.36-6.08ZM58.22,98.76c0-1.87-.91-2.92-2.66-3.13-1.64-.2-3.18,1.16-3.17,2.8,0,1.77.99,2.83,2.77,2.89,1.76.06,2.76-.94,3.07-2.56h0Z"/>
      <path class="cls-1" d="M143.22,98.45c.03,3.53-2.58,6.18-6.16,6.24-3.69.07-6.49-2.59-6.51-6.17-.02-3.49,2.65-6.19,6.19-6.26,3.67-.07,6.45,2.58,6.48,6.19ZM139.82,98.51c-.15-1.83-1.12-2.81-2.88-2.89-1.66-.08-3.1,1.38-2.97,3.01.14,1.76,1.2,2.75,2.98,2.68,1.75-.07,2.7-1.11,2.87-2.8h0Z"/>
      <path class="cls-1" d="M34.65,92.39h3.37v4.4c1.97.49,2.61-.79,2.92-2.09.58-2.42,1.99-2.95,4.59-2.05-1,2-1.97,3.93-3.06,6.12.87,1.55,1.93,3.46,3,5.37-.17.28-.33.55-.5.83-1.26-.41-2.79-.51-3.71-1.31-1.05-.91-1.54-2.45-2.28-3.72-.26.05-.53.09-.79.14-.06,1.41-.13,2.81-.2,4.42h-3.34v-12.1h0Z"/>
      <path class="cls-1" d="M86.71,101.92v2.61h-3.62v-12.12c2.19,0,4.48-.23,6.71.06,2.66.35,4.02,2.5,3.72,5.2-.28,2.61-1.89,4.05-4.62,4.15-.7.03-1.4.06-2.2.1,0,0,.01,0,.01,0ZM86.53,99.35c1.29-.5,2.39-.68,3.11-1.31.36-.32.31-1.82-.07-2.11-.75-.57-1.86-.67-3.05-1.03v4.44h.01Z"/>
      <path class="cls-1" d="M9.28,97.1c-1.71-1.37-3.55-2.51-5.04-.42-.59.82-.55,2.78.05,3.62,1.39,1.96,3.2,1.02,4.69-.21,2.2,2.18,2,3.17-.76,4.21-2.62.99-5.68.04-7.18-2.24-1.65-2.51-1.3-6.02.82-8.13,1.94-1.93,5.15-2.23,7.51-.83,2.13,1.26.83,2.45-.09,3.99h0Z"/>
      <path class="cls-1" d="M120.68,95.26c-1.14-.11-2-.19-2.91-.28.13-.88.25-1.66.39-2.58h8.71c.06.79.12,1.62.19,2.57-.94.09-1.77.17-2.75.27v9.26h-3.63v-9.25h0Z"/>
      <path class="cls-1" d="M17.87,101.85h5.26c-.06.97-.11,1.78-.17,2.71h-8.44v-12.16h3.35v9.45Z"/>
      <path class="cls-1" d="M97.98,104.54v-12.11h3.44v9.35h5.29c-.1,1.09-.17,1.85-.25,2.76h-8.48Z"/>
      <path class="cls-1" d="M110.42,104.5v-12.12h3.48v12.12h-3.48Z"/>
    </g>
  </g>
</svg>