<?xml version="1.0" encoding="UTF-8"?>
<svg id="Layer_2" data-name="Layer 2" xmlns="http://www.w3.org/2000/svg" viewBox="0 0 304.12 231.25">
  <defs>
    <style>
      .cls-1 {
        fill: #fff;
      }
    </style>
  </defs>
  <g id="Layer_1-2" data-name="Layer 1">
    <g>
      <path d="M183.07,135.94c3.95,2.43,7.66,4.71,11.37,7-10.05,15.7-34.79,23.79-55.35,18.89-13.87-3.3-24.4-11.08-32.84-22.3-5.47-7.27-10.96-14.64-17.33-21.07-2.46-2.49-7.4-2.53-11.2-3.68-.9,3.19-3.51,8.02-2.35,9.24,2.5,2.61,6.9,3.48,10.62,4.8,.95,.34,2.26-.32,3.77-.58,2.56,3.42,5.17,6.9,7.79,10.4-11.28,7.94-26.17,6.38-33.38-3.2-7.64-10.15-5.61-24.76,6.2-32.58,26.22-17.35,53.05-33.8,79.62-50.64,3.91-2.48,7.77-5.04,12.21-7.93-3.24-6.37-6.23-12.24-10.22-20.07-6.88,17.21-14.75,31.68-33.66,36.42,7.36-14.75,14.6-29.26,21.85-43.79-11.95-5.34-30.93,3.89-38.36,16.56-7.13,12.17-5.52,21.08,6.77,34.62-3.9,2.51-7.67,4.94-11.33,7.3-17.45-13.58-18.69-37.12-3.03-55.69C104.42,7.54,117.82,1.2,133.46,.14c13.86-.95,23.84,6.36,30.45,17.66,8.44,14.43,15.84,29.47,23.97,44.76-3.68,2.57-7.18,5-11.06,7.71-2.79-4.58-5.2-8.51-7.96-13.04-12.34,7.59-24.26,14.92-37.16,22.84,4.25,3.15,7.9,5.86,12.07,8.95-6.82,5.58-13.01,10.89-21.6,2.56-1.49-1.44-5.8-1.65-7.81-.58-6.62,3.54-12.78,7.93-18.82,11.8,6.92,9.09,13.38,17.82,20.11,26.33,18.95,23.98,43.16,26.63,67.43,6.8Z"/>
      <path d="M159.32,1.44c18.72-5.57,43.28,5.45,55.61,24.94,10.76,17,7.76,32.67-11.07,53.84,8.35,5.96,16.66,11.77,24.83,17.75,7.22,5.29,13.95,11.17,15.17,20.74,2.3,18.15-13.66,30.56-32,23.05-16.94-6.93-32.62-16.94-49.34-25.86,11.39-10.33,11.48-10.13,23.55-3.35,9.7,5.45,19.57,10.71,29.77,15.13,3.19,1.38,8.78,1.1,11.23-.91,1.9-1.56,.61-6.99,.74-10.7h-12.7c-.1,.83-.2,1.66-.29,2.49-3.92-2.32-7.85-4.64-12.3-7.27,2.57-3.3,4.66-5.97,7.32-9.38-6.74-4.68-13.18-9.15-19.28-13.38-22.66,13.05-44.99,25.92-67.59,38.95-2.89-3.83-5.36-7.09-8.56-11.33,11.28-6.46,22.47-12.63,33.42-19.2,14.11-8.48,28.12-17.15,42.01-25.98,10.01-6.37,19.34-14.05,16.73-27.48-2.69-13.86-12.3-23.45-25.73-26.25-10.38-2.16-15.96-8.33-21.5-15.78Z"/>
      <path class="cls-1" d="M266.75,209.73c-2.6,1.48-5.55,4.52-7.69,4.02-2.57-.59-4.45-4.2-6.62-6.5,2.32-2.02,4.54-5.45,7-5.65,2.33-.18,4.94,3.03,7.42,4.75-.03,1.12-.07,2.25-.1,3.37Z"/>
      <path class="cls-1" d="M129.1,200.01c1.79,2.46,5.09,5,4.95,7.35-.13,2.36-3.69,6.34-5.72,6.32-2.37-.02-6.08-3.29-6.63-5.74-.49-2.18,2.52-5.16,3.98-7.79,1.14-.05,2.28-.1,3.42-.14Z"/>
      <g>
        <path d="M24.82,177.77c-.48-1.54-.87-2.77-1.19-3.69-.31-.92-.69-1.78-1.15-2.59-.45-.8-1.05-1.46-1.78-1.97-.74-.51-1.66-.76-2.76-.76s-1.99,.26-2.73,.76c-.74,.51-1.33,1.18-1.78,2-.45,.82-.88,1.86-1.28,3.11-.4,1.25-.74,2.31-1.03,3.2L1.15,208.81c-.41,1.24-.7,2.2-.88,2.9-.18,.69-.27,1.37-.27,2.02,0,1.13,.38,2.14,1.15,3.03,.76,.89,1.64,1.33,2.64,1.33,1.17,0,2.01-.42,2.53-1.25,.51-.83,1.14-2.44,1.86-4.83l1.86-6.12h15.87l1.86,5.99c.25,.74,.55,1.59,.89,2.55,.35,.97,.67,1.68,.97,2.15,.3,.47,.67,.83,1.12,1.11,.44,.27,.98,.41,1.6,.41,1.07,0,1.98-.46,2.73-1.38,.75-.92,1.13-1.94,1.13-3.04s-.4-2.76-1.2-5.11l-10.2-30.77Zm-12.7,20.85l5.78-19.68,5.89,19.68H12.12Z"/>
        <path d="M45.11,168.76c-1.1,0-1.98,.46-2.62,1.37-.65,.91-.97,2.26-.97,4.03v38.51c0,1.73,.33,3.07,1,4,.67,.93,1.53,1.4,2.6,1.4s1.97-.45,2.65-1.35,1.03-2.25,1.03-4.05v-38.51c0-1.8-.34-3.15-1.01-4.05-.68-.9-1.56-1.35-2.66-1.35Z"/>
        <path d="M65.86,196.02h-8.42c-1.31,0-2.29,.36-2.94,1.09-.65,.73-.97,1.68-.97,2.85s.33,2.09,1,2.81c.67,.73,1.64,1.09,2.92,1.09h8.42c1.33,0,2.32-.36,2.96-1.09s.96-1.66,.96-2.81-.32-2.12-.97-2.85c-.65-.73-1.63-1.09-2.94-1.09Z"/>
        <path d="M105.94,207.67l-11.08-19.39,9.61-11.13c1.19-1.39,1.78-2.79,1.78-4.2,0-1.17-.35-2.16-1.05-2.98-.7-.81-1.62-1.22-2.76-1.22-.87,0-1.57,.23-2.09,.68-.52,.46-1.16,1.16-1.9,2.11l-15.53,19.78v-16.72c0-1.97-.37-3.44-1.1-4.41-.74-.96-1.7-1.45-2.89-1.45s-2.16,.49-2.86,1.46c-.7,.98-1.05,2.44-1.05,4.39v35.46c0,1.52,.03,2.68,.08,3.48,.05,.8,.2,1.51,.45,2.11,.34,.74,.82,1.32,1.44,1.76,.62,.43,1.27,.65,1.94,.65,1.17,0,2.13-.48,2.88-1.45s1.12-2.44,1.12-4.44v-9.86l6.47-7.58,9.35,17.57c.37,.78,.8,1.65,1.28,2.6,.48,.95,1.07,1.72,1.76,2.29s1.59,.86,2.69,.86c1.17,0,2.1-.39,2.78-1.17,.68-.78,1.02-1.7,1.02-2.76,0-.95-.2-1.94-.59-2.94-.39-1.01-.98-2.18-1.76-3.53Z"/>
        <path d="M136.05,186.98c-1.28-1.6-2.81-2.84-4.61-3.71-1.79-.87-3.79-1.3-5.99-1.3s-4.15,.43-5.94,1.28c-1.79,.86-3.32,2.08-4.58,3.66-1.26,1.58-2.23,3.49-2.9,5.73-.67,2.23-1.01,4.7-1.01,7.38s.33,5.1,1,7.3c.67,2.2,1.64,4.11,2.93,5.73,1.29,1.62,2.81,2.86,4.57,3.72,1.76,.87,3.74,1.3,5.94,1.3s4.22-.43,5.99-1.28,3.3-2.09,4.58-3.69,2.25-3.52,2.93-5.76c.67-2.23,1.01-4.67,1.01-7.32s-.33-5.11-1-7.32c-.67-2.21-1.64-4.12-2.92-5.73Zm-5.34,21.45c-1.3,2.03-3.06,3.04-5.26,3.04-1.46,0-2.72-.46-3.79-1.38-1.07-.92-1.9-2.25-2.48-3.98-.58-1.73-.87-3.76-.87-6.08s.29-4.39,.88-6.15c.59-1.76,1.42-3.08,2.5-3.98,1.08-.9,2.33-1.35,3.75-1.35,2.2,0,3.95,1.01,5.26,3.02,1.31,2.02,1.96,4.84,1.96,8.46s-.65,6.38-1.96,8.41Z"/>
        <path d="M182.74,183.47c-1.44-.95-3.15-1.43-5.14-1.43-1.7,0-3.26,.44-4.66,1.32s-2.72,2.23-3.94,4.05c-.85-1.8-1.94-3.14-3.25-4.03-1.31-.89-2.89-1.33-4.71-1.33s-3.36,.43-4.79,1.3c-1.44,.87-2.79,2.22-4.05,4.07v-.85c0-1.43-.33-2.55-1-3.37-.67-.81-1.5-1.22-2.49-1.22s-1.86,.43-2.49,1.3c-.63,.87-.95,2.14-.95,3.81v25.41c0,1.84,.35,3.24,1.05,4.18,.7,.94,1.6,1.41,2.7,1.41s2.02-.47,2.7-1.41c.68-.94,1.03-2.34,1.03-4.18v-12c0-3.73,.38-6.59,1.13-8.59,.75-2,2.32-2.99,4.7-2.99,1.19,0,2.06,.4,2.61,1.19,.55,.79,.89,1.81,1.01,3.04,.12,1.24,.19,2.97,.19,5.2v14.15c0,1.87,.34,3.26,1.03,4.2,.68,.93,1.58,1.4,2.68,1.4s2.05-.47,2.74-1.4c.69-.93,1.04-2.33,1.04-4.2v-11.81c0-3.79,.27-6.44,.8-7.94,.48-1.17,1.15-2.1,2.01-2.8,.86-.69,1.77-1.04,2.73-1.04,1.19,0,2.08,.39,2.66,1.17s.95,1.75,1.08,2.9c.13,1.15,.2,2.68,.2,4.59v14.93c0,1.84,.35,3.24,1.05,4.18s1.6,1.41,2.7,1.41,2.05-.47,2.74-1.4c.69-.93,1.04-2.33,1.04-4.2v-17.34c0-3.45-.31-5.97-.93-7.58-.71-1.78-1.78-3.14-3.22-4.1Z"/>
        <path d="M216.1,184.15c-1.88-1.41-3.94-2.11-6.18-2.11-1.86,0-3.53,.48-5.01,1.45-1.47,.97-2.89,2.48-4.26,4.54v-1.07c0-1.6-.32-2.83-.97-3.69-.65-.86-1.49-1.28-2.52-1.28s-1.87,.42-2.48,1.25-.91,2.1-.91,3.79v38.32c0,1.93,.22,3.4,.67,4.41,.44,1.01,1.35,1.51,2.72,1.51,2.33,0,3.49-1.95,3.49-5.86v-13.34c1.28,1.97,2.62,3.47,4.03,4.49,1.41,1.02,3.16,1.53,5.23,1.53,1.72,0,3.33-.42,4.83-1.25,1.5-.83,2.8-2.03,3.9-3.58,1.1-1.55,1.97-3.47,2.6-5.76,.63-2.29,.95-4.8,.95-7.53,0-3.71-.55-6.92-1.64-9.63-1.09-2.71-2.58-4.77-4.46-6.18Zm-2.13,21.92c-.62,1.71-1.45,3-2.48,3.85-1.03,.86-2.15,1.29-3.36,1.29-2.02,0-3.72-.98-5.09-2.94-1.37-1.96-2.05-4.71-2.05-8.25,0-3.75,.69-6.59,2.06-8.52,1.38-1.93,3.07-2.9,5.07-2.9,1.26,0,2.41,.45,3.45,1.35s1.85,2.19,2.44,3.87,.88,3.69,.88,6.03-.31,4.5-.93,6.21Z"/>
        <path d="M231.63,168.76c-1.1,0-1.98,.46-2.62,1.37-.65,.91-.97,2.26-.97,4.03v38.51c0,1.73,.33,3.07,1,4,.67,.93,1.53,1.4,2.6,1.4s1.97-.45,2.65-1.35,1.03-2.25,1.03-4.05v-38.51c0-1.8-.34-3.15-1.01-4.05-.68-.9-1.56-1.35-2.66-1.35Z"/>
        <path d="M246.41,181.97c-1.07,0-1.93,.44-2.6,1.33-.67,.89-1,2.21-1,3.97v25.41c0,1.73,.33,3.07,1,4,.67,.93,1.53,1.4,2.6,1.4s1.94-.46,2.64-1.37c.69-.91,1.04-2.25,1.04-4.03v-25.67c0-1.58-.35-2.82-1.04-3.71-.69-.89-1.57-1.33-2.64-1.33Z"/>
        <path d="M246.49,169.15c-.98,0-1.83,.41-2.57,1.22-.74,.81-1.1,1.85-1.1,3.11,0,1.39,.36,2.46,1.08,3.22,.72,.76,1.58,1.14,2.6,1.14s1.82-.38,2.53-1.15c.71-.77,1.06-1.84,1.06-3.2s-.36-2.48-1.09-3.22c-.73-.74-1.56-1.11-2.5-1.11Z"/>
        <path d="M271.95,210.66c-.41,0-.98,.09-1.7,.28-.73,.18-1.3,.28-1.73,.28-.78,0-1.34-.23-1.69-.7-.35-.47-.56-1.07-.64-1.82-.08-.75-.12-1.82-.12-3.2v-16.33h1.36c1.44,0,2.54-.24,3.32-.72,.77-.48,1.16-1.31,1.16-2.5,0-.93-.27-1.7-.81-2.29-.54-.6-1.33-.89-2.36-.89h-2.66v-6.05c0-1.5-.07-2.65-.2-3.46-.13-.81-.45-1.5-.95-2.07-.75-.85-1.58-1.27-2.5-1.27-.66,0-1.25,.19-1.78,.57-.53,.38-.94,.87-1.22,1.48-.28,.59-.46,1.28-.52,2.1-.06,.81-.09,1.94-.09,3.37v5.33h-.8c-1.1,0-1.94,.3-2.52,.89-.58,.6-.87,1.36-.87,2.29s.27,1.7,.83,2.31c.55,.61,1.35,.91,2.4,.91h.96v17.04c0,2.75,.18,4.96,.55,6.6,.36,1.65,1.13,2.94,2.3,3.87,1.17,.93,2.89,1.4,5.17,1.4,2.4,0,4.23-.38,5.51-1.14s1.92-1.85,1.92-3.29c0-.85-.24-1.56-.71-2.13s-1-.86-1.58-.86Z"/>
        <path d="M303.12,192.71c-.67-2.21-1.64-4.12-2.92-5.73-1.28-1.6-2.81-2.84-4.61-3.71-1.79-.87-3.79-1.3-5.99-1.3s-4.15,.43-5.94,1.28c-1.79,.86-3.32,2.08-4.58,3.66-1.26,1.58-2.23,3.49-2.9,5.73-.67,2.23-1.01,4.7-1.01,7.38s.33,5.1,1,7.3c.67,2.2,1.64,4.11,2.93,5.73,1.29,1.62,2.81,2.86,4.57,3.72,1.76,.87,3.74,1.3,5.94,1.3s4.22-.43,5.99-1.28,3.3-2.09,4.58-3.69,2.25-3.52,2.93-5.76c.67-2.23,1.01-4.67,1.01-7.32s-.33-5.11-1-7.32Zm-8.26,15.73c-1.3,2.03-3.06,3.04-5.26,3.04-1.46,0-2.72-.46-3.79-1.38-1.07-.92-1.9-2.25-2.48-3.98-.58-1.73-.87-3.76-.87-6.08s.29-4.39,.88-6.15c.59-1.76,1.42-3.08,2.5-3.98,1.08-.9,2.33-1.35,3.75-1.35,2.2,0,3.95,1.01,5.26,3.02,1.31,2.02,1.96,4.84,1.96,8.46s-.65,6.38-1.96,8.41Z"/>
      </g>
    </g>
  </g>
</svg>