<?xml version="1.0" encoding="UTF-8"?>
<svg xmlns="http://www.w3.org/2000/svg" version="1.1" viewBox="0 0 304.1 231.2">
  <!-- Generator: Adobe Illustrator 28.6.0, SVG Export Plug-In . SVG Version: 1.2.0 Build 578)  -->
  <g>
    <g id="Layer_2">
      <g>
        <path d="M183.1,135.9c3.9,2.4,7.7,4.7,11.4,7-10.1,15.7-34.8,23.8-55.4,18.9-13.9-3.3-24.4-11.1-32.8-22.3-5.5-7.3-11-14.6-17.3-21.1-2.5-2.5-7.4-2.5-11.2-3.7-.9,3.2-3.5,8-2.3,9.2,2.5,2.6,6.9,3.5,10.6,4.8.9.3,2.3-.3,3.8-.6,2.6,3.4,5.2,6.9,7.8,10.4-11.3,7.9-26.2,6.4-33.4-3.2-7.6-10.2-5.6-24.8,6.2-32.6,26.2-17.3,53.1-33.8,79.6-50.6,3.9-2.5,7.8-5,12.2-7.9-3.2-6.4-6.2-12.2-10.2-20.1-6.9,17.2-14.8,31.7-33.7,36.4,7.4-14.8,14.6-29.3,21.9-43.8-11.9-5.3-30.9,3.9-38.4,16.6-7.1,12.2-5.5,21.1,6.8,34.6-3.9,2.5-7.7,4.9-11.3,7.3-17.5-13.6-18.7-37.1-3-55.7C104.4,7.5,117.8,1.2,133.5.1c13.9-1,23.8,6.4,30.4,17.7,8.4,14.4,15.8,29.5,24,44.8-3.7,2.6-7.2,5-11.1,7.7-2.8-4.6-5.2-8.5-8-13-12.3,7.6-24.3,14.9-37.2,22.8,4.2,3.2,7.9,5.9,12.1,8.9-6.8,5.6-13,10.9-21.6,2.6-1.5-1.4-5.8-1.7-7.8-.6-6.6,3.5-12.8,7.9-18.8,11.8,6.9,9.1,13.4,17.8,20.1,26.3,18.9,24,43.2,26.6,67.4,6.8h0Z"/>
        <path d="M159.3,1.4c18.7-5.6,43.3,5.4,55.6,24.9,10.8,17,7.8,32.7-11.1,53.8,8.4,6,16.7,11.8,24.8,17.8,7.2,5.3,13.9,11.2,15.2,20.7,2.3,18.2-13.7,30.6-32,23-16.9-6.9-32.6-16.9-49.3-25.9,11.4-10.3,11.5-10.1,23.6-3.3,9.7,5.4,19.6,10.7,29.8,15.1,3.2,1.4,8.8,1.1,11.2-.9,1.9-1.6.6-7,.7-10.7h-12.7c-.1.8-.2,1.7-.3,2.5-3.9-2.3-7.9-4.6-12.3-7.3,2.6-3.3,4.7-6,7.3-9.4-6.7-4.7-13.2-9.2-19.3-13.4-22.7,13.1-45,25.9-67.6,38.9-2.9-3.8-5.4-7.1-8.6-11.3,11.3-6.5,22.5-12.6,33.4-19.2,14.1-8.5,28.1-17.2,42-26,10-6.4,19.3-14,16.7-27.5-2.7-13.9-12.3-23.5-25.7-26.2-10.4-2.2-16-8.3-21.5-15.8h0Z"/>
        <g>
          <g>
            <path d="M3.1,213.9v-38.1c0-2.6,1.5-4.1,4.1-4.1h18.2c1.8,0,3.4,1.5,3.4,3.4s-1.6,3.3-3.4,3.3h-14.6v12.6h14.2c1.8,0,3.4,1.5,3.4,3.4s-1.6,3.4-3.4,3.4h-14.2v13.4h14.6c1.8,0,3.4,1.5,3.4,3.4s-1.6,3.4-3.4,3.4H7.1c-2.6,0-4.1-1.5-4.1-4.1Z"/>
            <path d="M35.5,214.9v-40.1c0-1.9,1.6-3.5,3.5-3.5s3.5,1.6,3.5,3.5v40.1c0,1.9-1.6,3.5-3.5,3.5s-3.5-1.6-3.5-3.5Z"/>
            <path d="M48.1,201.2c0-1.7,1.4-3,3-3h9.5c1.6,0,3,1.3,3,3s-1.4,3-3,3h-9.5c-1.6,0-3-1.3-3-3Z"/>
            <path d="M100.1,214.6c0,2.1-1.6,3.8-3.7,3.8s-2.4-.6-3.1-1.7l-12.6-17.6-3.5,5.1v10.4c0,2.1-1.7,3.9-3.9,3.9s-3.8-1.8-3.8-3.9v-39.3c0-2.1,1.7-3.9,3.8-3.9s3.9,1.8,3.9,3.9v18.9l15-21.1c.7-1,1.8-1.7,3-1.7,2,0,3.7,1.6,3.7,3.6s-.2,1.5-.7,2.1l-12.6,16.7,13.8,18.8c.4.6.7,1.3.7,2.1Z"/>
            <path d="M102.6,201.2c0-9.4,5-17.6,14.5-17.6s14.5,8.1,14.5,17.6-5,17.6-14.5,17.6-14.5-8.2-14.5-17.6ZM124.5,201.2c0-6-2.3-11.4-7.4-11.4s-7.4,5.4-7.4,11.4,2.3,11.5,7.4,11.5,7.4-5.5,7.4-11.5Z"/>
            <path d="M180.1,192.4v22.4c0,1.9-1.6,3.5-3.5,3.5s-3.5-1.6-3.5-3.5v-20.2c0-3.1-1.2-4.9-4.2-4.9s-5.3,2.4-6.4,4.6v20.5c0,1.9-1.6,3.5-3.5,3.5s-3.5-1.6-3.5-3.5v-20.2c0-3.1-1.2-4.9-4.2-4.9s-5.2,2.4-6.4,4.6v20.5c0,1.9-1.6,3.5-3.5,3.5s-3.5-1.6-3.5-3.5v-27.3c0-1.9,1.6-3.5,3.5-3.5s3.5,1.6,3.5,3.5v1.5c1.3-2.3,5.2-5.3,9.3-5.3s7.1,2.2,7.8,5.9c1.6-3,5.5-5.9,9.6-5.9s8.2,2.7,8.2,8.8Z"/>
            <path d="M216,201.2c0,10.7-4.6,17.6-12.2,17.6s-6.6-1.8-8.6-5.5v14.4c0,1.9-1.6,3.5-3.5,3.5s-3.5-1.6-3.5-3.5v-40.2c0-1.9,1.6-3.5,3.5-3.5s3.5,1.6,3.5,3.5v1.4c1.9-3.3,5.3-5.3,8.6-5.3,7.6,0,12.2,6.7,12.2,17.6ZM208.9,201.2c0-6.5-2.4-11.4-7.1-11.4s-5.3,2-6.5,4.6v13.7c1.2,2.5,3.9,4.6,6.5,4.6,4.8,0,7.1-5.1,7.1-11.5Z"/>
            <path d="M222.5,214.9v-40.1c0-1.9,1.6-3.5,3.5-3.5s3.5,1.6,3.5,3.5v40.1c0,1.9-1.6,3.5-3.5,3.5s-3.5-1.6-3.5-3.5Z"/>
            <path d="M236.7,173.5c0-2.4,2-4.4,4.4-4.4s4.3,1.9,4.3,4.4-1.9,4.3-4.3,4.3-4.4-1.9-4.4-4.3ZM237.6,214.9v-27.3c0-1.9,1.6-3.5,3.5-3.5s3.5,1.6,3.5,3.5v27.3c0,1.9-1.6,3.5-3.5,3.5s-3.5-1.6-3.5-3.5Z"/>
            <path d="M267.6,215.4c0,1.2-.8,2.2-1.8,2.7-1,.4-2.4.7-4.1.7-5.3,0-7.8-2.8-7.8-8.3v-20h-1.7c-1.7,0-3.1-1.4-3.1-3.1s1.4-3,3.1-3h1.7v-6.1c0-1.9,1.6-3.5,3.5-3.5s3.5,1.6,3.5,3.5v6.1h2.9c1.7,0,3.1,1.3,3.1,3s-1.4,3.1-3.1,3.1h-2.9v18.5c0,2.3.8,3.7,2.6,3.7s1-.2,1.5-.2c1.7,0,2.7,1.3,2.7,2.9Z"/>
            <path d="M270.7,201.2c0-9.4,5-17.6,14.5-17.6s14.5,8.1,14.5,17.6-5,17.6-14.5,17.6-14.5-8.2-14.5-17.6ZM292.5,201.2c0-6-2.3-11.4-7.4-11.4s-7.4,5.4-7.4,11.4,2.3,11.5,7.4,11.5,7.4-5.5,7.4-11.5Z"/>
          </g>
          <g>
            <path d="M3.1,213.9v-38.1c0-2.6,1.5-4.1,4.1-4.1h18.2c1.8,0,3.4,1.5,3.4,3.4s-1.6,3.3-3.4,3.3h-14.6v12.6h14.2c1.8,0,3.4,1.5,3.4,3.4s-1.6,3.4-3.4,3.4h-14.2v13.4h14.6c1.8,0,3.4,1.5,3.4,3.4s-1.6,3.4-3.4,3.4H7.1c-2.6,0-4.1-1.5-4.1-4.1Z"/>
            <path d="M35.5,214.9v-40.1c0-1.9,1.6-3.5,3.5-3.5s3.5,1.6,3.5,3.5v40.1c0,1.9-1.6,3.5-3.5,3.5s-3.5-1.6-3.5-3.5Z"/>
            <path d="M48.1,201.2c0-1.7,1.4-3,3-3h9.5c1.6,0,3,1.3,3,3s-1.4,3-3,3h-9.5c-1.6,0-3-1.3-3-3Z"/>
            <path d="M100.1,214.6c0,2.1-1.6,3.8-3.7,3.8s-2.4-.6-3.1-1.7l-12.6-17.6-3.5,5.1v10.4c0,2.1-1.7,3.9-3.9,3.9s-3.8-1.8-3.8-3.9v-39.3c0-2.1,1.7-3.9,3.8-3.9s3.9,1.8,3.9,3.9v18.9l15-21.1c.7-1,1.8-1.7,3-1.7,2,0,3.7,1.6,3.7,3.6s-.2,1.5-.7,2.1l-12.6,16.7,13.8,18.8c.4.6.7,1.3.7,2.1Z"/>
            <path d="M102.6,201.2c0-9.4,5-17.6,14.5-17.6s14.5,8.1,14.5,17.6-5,17.6-14.5,17.6-14.5-8.2-14.5-17.6ZM124.5,201.2c0-6-2.3-11.4-7.4-11.4s-7.4,5.4-7.4,11.4,2.3,11.5,7.4,11.5,7.4-5.5,7.4-11.5Z"/>
            <path d="M180.1,192.4v22.4c0,1.9-1.6,3.5-3.5,3.5s-3.5-1.6-3.5-3.5v-20.2c0-3.1-1.2-4.9-4.2-4.9s-5.3,2.4-6.4,4.6v20.5c0,1.9-1.6,3.5-3.5,3.5s-3.5-1.6-3.5-3.5v-20.2c0-3.1-1.2-4.9-4.2-4.9s-5.2,2.4-6.4,4.6v20.5c0,1.9-1.6,3.5-3.5,3.5s-3.5-1.6-3.5-3.5v-27.3c0-1.9,1.6-3.5,3.5-3.5s3.5,1.6,3.5,3.5v1.5c1.3-2.3,5.2-5.3,9.3-5.3s7.1,2.2,7.8,5.9c1.6-3,5.5-5.9,9.6-5.9s8.2,2.7,8.2,8.8Z"/>
            <path d="M216,201.2c0,10.7-4.6,17.6-12.2,17.6s-6.6-1.8-8.6-5.5v14.4c0,1.9-1.6,3.5-3.5,3.5s-3.5-1.6-3.5-3.5v-40.2c0-1.9,1.6-3.5,3.5-3.5s3.5,1.6,3.5,3.5v1.4c1.9-3.3,5.3-5.3,8.6-5.3,7.6,0,12.2,6.7,12.2,17.6ZM208.9,201.2c0-6.5-2.4-11.4-7.1-11.4s-5.3,2-6.5,4.6v13.7c1.2,2.5,3.9,4.6,6.5,4.6,4.8,0,7.1-5.1,7.1-11.5Z"/>
            <path d="M222.5,214.9v-40.1c0-1.9,1.6-3.5,3.5-3.5s3.5,1.6,3.5,3.5v40.1c0,1.9-1.6,3.5-3.5,3.5s-3.5-1.6-3.5-3.5Z"/>
            <path d="M236.7,173.5c0-2.4,2-4.4,4.4-4.4s4.3,1.9,4.3,4.4-1.9,4.3-4.3,4.3-4.4-1.9-4.4-4.3ZM237.6,214.9v-27.3c0-1.9,1.6-3.5,3.5-3.5s3.5,1.6,3.5,3.5v27.3c0,1.9-1.6,3.5-3.5,3.5s-3.5-1.6-3.5-3.5Z"/>
            <path d="M267.6,215.4c0,1.2-.8,2.2-1.8,2.7-1,.4-2.4.7-4.1.7-5.3,0-7.8-2.8-7.8-8.3v-20h-1.7c-1.7,0-3.1-1.4-3.1-3.1s1.4-3,3.1-3h1.7v-6.1c0-1.9,1.6-3.5,3.5-3.5s3.5,1.6,3.5,3.5v6.1h2.9c1.7,0,3.1,1.3,3.1,3s-1.4,3.1-3.1,3.1h-2.9v18.5c0,2.3.8,3.7,2.6,3.7s1-.2,1.5-.2c1.7,0,2.7,1.3,2.7,2.9Z"/>
            <path d="M270.7,201.2c0-9.4,5-17.6,14.5-17.6s14.5,8.1,14.5,17.6-5,17.6-14.5,17.6-14.5-8.2-14.5-17.6ZM292.5,201.2c0-6-2.3-11.4-7.4-11.4s-7.4,5.4-7.4,11.4,2.3,11.5,7.4,11.5,7.4-5.5,7.4-11.5Z"/>
          </g>
        </g>
      </g>
    </g>
  </g>
</svg>